<svg width="192" height="192" viewBox="0 0 192 192" fill="none" xmlns="http://www.w3.org/2000/svg">
<path d="M67.5599 72.73C66.9899 78.81 66.5899 89.57 70.1799 94.15C70.1799 94.15 68.4899 82.33 83.6399 67.5C89.7399 61.53 91.1499 53.41 89.0199 47.32C87.8099 43.87 85.5999 41.02 83.6799 39.03C82.5599 37.86 83.4199 35.93 85.0499 36C94.9099 36.44 110.89 39.18 117.68 56.22C120.66 63.7 120.88 71.43 119.46 79.29C118.56 84.31 115.36 95.47 122.66 96.84C127.87 97.82 130.39 93.68 131.52 90.7C131.99 89.46 133.62 89.15 134.5 90.14C143.3 100.15 144.05 111.94 142.23 122.09C138.71 141.71 118.84 155.99 99.0999 155.99C74.4399 155.99 54.8099 141.88 49.7199 116.34C47.6699 106.03 48.7099 85.63 64.6099 71.23C65.7899 70.15 67.7199 71.11 67.5599 72.73Z" fill="url(#paint0_radial_4_9)"/>
<path d="M108.11 109.42C99.02 97.72 103.09 84.37 105.32 79.05C105.62 78.35 104.82 77.69 104.19 78.12C100.28 80.78 92.27 87.04 88.54 95.85C83.49 107.76 83.85 113.59 86.84 120.71C88.64 125 86.55 125.91 85.5 126.07C84.48 126.23 83.54 125.55 82.79 124.84C80.64 122.79 79.09 120.12 78.35 117.24C78.19 116.62 77.38 116.45 77.01 116.96C74.21 120.83 72.76 127.04 72.69 131.43C72.47 145 83.6799 156 97.24 156C114.33 156 126.78 137.1 116.96 121.3C114.11 116.7 111.43 113.69 108.11 109.42Z" fill="url(#paint1_radial_4_9)"/>
<defs>
<radialGradient id="paint0_radial_4_9" cx="0" cy="0" r="1" gradientUnits="userSpaceOnUse" gradientTransform="translate(94.216 156.301) rotate(-179.751) scale(70.5877 115.82)">
<stop offset="0.3144" stop-color="#FF9800"/>
<stop offset="0.6616" stop-color="#FF6D00"/>
<stop offset="0.9715" stop-color="#F44336"/>
</radialGradient>
<radialGradient id="paint1_radial_4_9" cx="0" cy="0" r="1" gradientTransform="matrix(-0.745985 73.8525 55.5796 0.561614 98.1798 86.0589)" gradientUnits="userSpaceOnUse">
<stop offset="0.2141" stop-color="#FFF176"/>
<stop offset="0.3275" stop-color="#FFF27D"/>
<stop offset="0.4868" stop-color="#FFF48F"/>
<stop offset="0.6722" stop-color="#FFF7AD"/>
<stop offset="0.7931" stop-color="#FFF9C4"/>
<stop offset="0.8221" stop-color="#FFF8BD" stop-opacity="0.804"/>
<stop offset="0.8627" stop-color="#FFF6AB" stop-opacity="0.529"/>
<stop offset="0.9101" stop-color="#FFF38D" stop-opacity="0.2088"/>
<stop offset="0.9409" stop-color="#FFF176" stop-opacity="0"/>
</radialGradient>
</defs>
</svg>
